<svg id="Layer_1" data-name="Layer 1" xmlns="http://www.w3.org/2000/svg" viewBox="0 0 58.61 58.61"><defs><style>.cls-1{fill:#b42d31;}.cls-2{fill:#fff;}</style></defs><title>jal00</title><path class="cls-1" d="M332.88,61.47a29.31,29.31,0,1,0,29.31,29.31V61.47H332.88Z" transform="translate(-303.57 -61.47)"/><polygon class="cls-2" points="29 41.81 13.84 41.61 29 41.4 29.23 41.61 29 41.81"/><polygon class="cls-2" points="30.5 41.4 50.49 41.61 30.5 41.81 30.27 41.61 30.5 41.4"/><path class="cls-2" d="M314.74,105l0,0.59h0a0.84,0.84,0,0,0-.19-0.33,0.59,0.59,0,0,0-.43-0.16,0.61,0.61,0,0,0-.54.28,1,1,0,0,0-.16.57,1.1,1.1,0,0,0,.1.48,0.67,0.67,0,0,0,.27.32,0.62,0.62,0,0,0,.34.1,0.72,0.72,0,0,0,.2,0l0.19-.08v-0.54a0.45,0.45,0,0,0,0-.18,0.13,0.13,0,0,0-.06-0.07,0.36,0.36,0,0,0-.16,0v-0.05H315v0.05h0a0.15,0.15,0,0,0-.14.07,0.47,0.47,0,0,0,0,.2v0.57a1.5,1.5,0,0,1-.31.13,1.54,1.54,0,0,1-.34,0,1,1,0,0,1-.82-0.34,0.92,0.92,0,0,1-.21-0.6,1.05,1.05,0,0,1,.51-0.88,0.93,0.93,0,0,1,.48-0.12l0.18,0,0.24,0.07,0.1,0a0.05,0.05,0,0,0,0,0,0.24,0.24,0,0,0,0-.09h0.05Z" transform="translate(-303.57 -61.47)"/><path class="cls-2" d="M316.58,105a0.84,0.84,0,0,1,.63.28,1,1,0,0,1,.26.69,1,1,0,0,1-.27.71,0.89,0.89,0,0,1-1.29,0,1,1,0,0,1-.26-0.71,0.94,0.94,0,0,1,.3-0.72,0.88,0.88,0,0,1,.63-0.24m0,0.1a0.48,0.48,0,0,0-.4.19,1,1,0,0,0-.19.67,1.12,1.12,0,0,0,.19.71,0.48,0.48,0,0,0,.4.18,0.55,0.55,0,0,0,.43-0.2,1,1,0,0,0,.17-0.64,1.12,1.12,0,0,0-.19-0.71,0.51,0.51,0,0,0-.42-0.19" transform="translate(-303.57 -61.47)"/><path class="cls-2" d="M319.38,105.91a0.6,0.6,0,0,1,.29.13,0.4,0.4,0,0,1,.13.31,0.48,0.48,0,0,1-.09.27,0.49,0.49,0,0,1-.24.18,1.33,1.33,0,0,1-.47.06h-0.88v-0.05h0.07a0.18,0.18,0,0,0,.17-0.07,0.41,0.41,0,0,0,0-.2v-1.21a0.34,0.34,0,0,0,0-.22,0.2,0.2,0,0,0-.16-0.06h-0.07V105h0.81a1.59,1.59,0,0,1,.36,0,0.6,0.6,0,0,1,.32.18,0.43,0.43,0,0,1,.11.29,0.38,0.38,0,0,1-.08.25,0.48,0.48,0,0,1-.25.16m-0.72-.07,0.12,0h0.14a0.78,0.78,0,0,0,.3,0,0.3,0.3,0,0,0,.15-0.13,0.38,0.38,0,0,0,.05-0.19,0.35,0.35,0,0,0-.13-0.28,0.58,0.58,0,0,0-.39-0.12,0.91,0.91,0,0,0-.25,0v0.71Zm0,0.89a1.26,1.26,0,0,0,.31,0,0.58,0.58,0,0,0,.38-0.11,0.36,0.36,0,0,0,.13-0.28,0.4,0.4,0,0,0-.06-0.21,0.4,0.4,0,0,0-.19-0.16,0.79,0.79,0,0,0-.33-0.05h-0.24v0.76Z" transform="translate(-303.57 -61.47)"/><path class="cls-2" d="M321.33,106.81v0.05h-0.8v-0.05h0.07a0.22,0.22,0,0,0,.17-0.07,0.46,0.46,0,0,0,0-.21v-1.21a0.57,0.57,0,0,0,0-.18,0.12,0.12,0,0,0-.05-0.06,0.27,0.27,0,0,0-.13,0h-0.07v0h0.8v0h-0.07a0.19,0.19,0,0,0-.17.07,0.41,0.41,0,0,0,0,.21v1.21a0.65,0.65,0,0,0,0,.18,0.16,0.16,0,0,0,.06.06,0.27,0.27,0,0,0,.13,0h0.07Z" transform="translate(-303.57 -61.47)"/><path class="cls-2" d="M322.49,105.1v0.73h0.41a0.33,0.33,0,0,0,.21,0,0.31,0.31,0,0,0,.08-0.22h0v0.65h0a0.61,0.61,0,0,0,0-.17,0.17,0.17,0,0,0-.08-0.08,0.47,0.47,0,0,0-.17,0h-0.41v0.61a0.71,0.71,0,0,0,0,.15l0,0,0.1,0H323a0.81,0.81,0,0,0,.23,0,0.35,0.35,0,0,0,.14-0.09,1.11,1.11,0,0,0,.17-0.26h0.06l-0.16.47H322v-0.05H322a0.27,0.27,0,0,0,.12,0,0.1,0.1,0,0,0,.06-0.07,0.6,0.6,0,0,0,0-.18v-1.21a0.42,0.42,0,0,0,0-.22,0.22,0.22,0,0,0-.17-0.05H322V105h1.43l0,0.41h-0.05a0.53,0.53,0,0,0-.07-0.2,0.21,0.21,0,0,0-.1-0.08,0.63,0.63,0,0,0-.2,0h-0.51Z" transform="translate(-303.57 -61.47)"/><path class="cls-2" d="M326,106.86h-0.5L324.9,106h-0.19v0.54a0.38,0.38,0,0,0,0,.21,0.19,0.19,0,0,0,.16.06H325v0.05h-0.8v-0.05h0.07a0.18,0.18,0,0,0,.17-0.08,0.41,0.41,0,0,0,0-.2v-1.21a0.36,0.36,0,0,0,0-.22,0.21,0.21,0,0,0-.16-0.06h-0.07V105h0.68a1.61,1.61,0,0,1,.44,0,0.5,0.5,0,0,1,.24.16,0.45,0.45,0,0,1,0,.57,0.63,0.63,0,0,1-.35.18l0.39,0.53a0.83,0.83,0,0,0,.23.24,0.54,0.54,0,0,0,.25.08v0.05Zm-1.32-1h0.08a0.61,0.61,0,0,0,.4-0.12,0.37,0.37,0,0,0,.13-0.29,0.39,0.39,0,0,0-.11-0.28,0.4,0.4,0,0,0-.29-0.11l-0.21,0v0.77Z" transform="translate(-303.57 -61.47)"/><path class="cls-2" d="M326.47,105H327l1.14,1.4v-1.08a0.35,0.35,0,0,0,0-.21,0.2,0.2,0,0,0-.16-0.06h-0.06V105h0.65v0.05h-0.07a0.18,0.18,0,0,0-.17.07,0.42,0.42,0,0,0,0,.2v1.57h0l-1.22-1.5v1.14a0.39,0.39,0,0,0,0,.22,0.2,0.2,0,0,0,.16.06h0.07v0.05h-0.65v-0.05h0.07a0.19,0.19,0,0,0,.17-0.07,0.41,0.41,0,0,0,0-.2v-1.29a1,1,0,0,0-.12-0.13l-0.12-.06h-0.12V105Z" transform="translate(-303.57 -61.47)"/><path class="cls-2" d="M330.07,105a0.84,0.84,0,0,1,.63.28,1,1,0,0,1,.26.69,1,1,0,0,1-.26.71,0.87,0.87,0,0,1-.65.28,0.86,0.86,0,0,1-.65-0.27,1,1,0,0,1-.26-0.71,0.94,0.94,0,0,1,.3-0.72,0.88,0.88,0,0,1,.63-0.24m0,0.1a0.49,0.49,0,0,0-.4.19,1,1,0,0,0-.19.67,1.12,1.12,0,0,0,.19.71,0.49,0.49,0,0,0,.39.18,0.54,0.54,0,0,0,.43-0.2,1,1,0,0,0,.17-0.64,1.12,1.12,0,0,0-.19-0.71,0.51,0.51,0,0,0-.42-0.19" transform="translate(-303.57 -61.47)"/><path class="cls-2" d="M332.84,106.86v-0.05h0.07a0.18,0.18,0,0,0,.16-0.07,0.37,0.37,0,0,0,0-.2v-1.21a0.39,0.39,0,0,0,0-.22,0.21,0.21,0,0,0-.16-0.06h-0.07V105h0.75a1.68,1.68,0,0,1,.64.09,0.76,0.76,0,0,1,.35.32,1,1,0,0,1-.11,1.16,1,1,0,0,1-.81.29h-0.83Zm0.53-.14a1.32,1.32,0,0,0,.29,0,0.69,0.69,0,0,0,.53-0.22,1,1,0,0,0,0-1.22,0.72,0.72,0,0,0-.54-0.22,1.14,1.14,0,0,0-.28,0v1.58Z" transform="translate(-303.57 -61.47)"/><path class="cls-2" d="M335.91,105.1v0.73h0.41a0.34,0.34,0,0,0,.21,0,0.32,0.32,0,0,0,.08-0.22h0.05v0.65h-0.05a0.5,0.5,0,0,0,0-.17,0.16,0.16,0,0,0-.08-0.08,0.45,0.45,0,0,0-.17,0h-0.41v0.61a0.47,0.47,0,0,0,0,.15l0,0,0.11,0h0.32a0.79,0.79,0,0,0,.23,0,0.35,0.35,0,0,0,.14-0.09,1,1,0,0,0,.17-0.26H337l-0.16.47h-1.43v-0.05h0.07a0.29,0.29,0,0,0,.13,0,0.11,0.11,0,0,0,.06-0.07,0.81,0.81,0,0,0,0-.18v-1.21a0.44,0.44,0,0,0,0-.22,0.22,0.22,0,0,0-.17-0.05h-0.07V105h1.43l0,0.41h-0.05a0.74,0.74,0,0,0-.07-0.2,0.22,0.22,0,0,0-.11-0.08,0.59,0.59,0,0,0-.19,0h-0.51Z" transform="translate(-303.57 -61.47)"/><path class="cls-2" d="M339.16,106.35h0l-0.16.51H337.6v-0.05h0.07a0.19,0.19,0,0,0,.17-0.08,0.47,0.47,0,0,0,0-.2v-1.2a0.39,0.39,0,0,0,0-.22,0.2,0.2,0,0,0-.16-0.06H337.6V105h0.85v0.05a0.54,0.54,0,0,0-.21,0,0.18,0.18,0,0,0-.08.07,0.65,0.65,0,0,0,0,.21v1.17a0.42,0.42,0,0,0,0,.16,0.11,0.11,0,0,0,.05,0l0.21,0h0.14a1,1,0,0,0,.3,0,0.37,0.37,0,0,0,.16-0.11,0.9,0.9,0,0,0,.14-0.25" transform="translate(-303.57 -61.47)"/><path class="cls-2" d="M341.46,105.1v0.73h0.41a0.33,0.33,0,0,0,.21,0,0.31,0.31,0,0,0,.08-0.22h0.05v0.65h-0.05a0.91,0.91,0,0,0,0-.17A0.2,0.2,0,0,0,342,106a0.47,0.47,0,0,0-.17,0h-0.41v0.61a0.45,0.45,0,0,0,0,.15,0.08,0.08,0,0,0,0,0l0.1,0h0.31a0.79,0.79,0,0,0,.23,0,0.32,0.32,0,0,0,.14-0.09,0.93,0.93,0,0,0,.17-0.26h0.05l-0.16.47h-1.44v-0.05H341a0.27,0.27,0,0,0,.13,0,0.12,0.12,0,0,0,.06-0.07,0.65,0.65,0,0,0,0-.18v-1.21a0.42,0.42,0,0,0,0-.22,0.22,0.22,0,0,0-.17-0.05h-0.07V105h1.44l0,0.41h-0.05a0.64,0.64,0,0,0-.06-0.2,0.22,0.22,0,0,0-.11-0.08,0.6,0.6,0,0,0-.19,0h-0.51Z" transform="translate(-303.57 -61.47)"/><path class="cls-2" d="M344.38,105v0.65h-0.05a0.72,0.72,0,0,0-.09-0.3,0.46,0.46,0,0,0-.18-0.18,0.52,0.52,0,0,0-.25-0.06,0.35,0.35,0,0,0-.24.08,0.28,0.28,0,0,0-.09.2,0.23,0.23,0,0,0,.06.16,1.47,1.47,0,0,0,.4.28,2.4,2.4,0,0,1,.36.22,0.48,0.48,0,0,1,.2.39,0.47,0.47,0,0,1-.16.36,0.6,0.6,0,0,1-.42.15h-0.15l-0.18,0-0.17,0-0.05,0a0.13,0.13,0,0,0,0,.08h-0.05v-0.64h0.05a1,1,0,0,0,.1.3,0.47,0.47,0,0,0,.18.17,0.59,0.59,0,0,0,.27.06,0.39,0.39,0,0,0,.27-0.09,0.27,0.27,0,0,0,.1-0.21,0.25,0.25,0,0,0,0-.14,0.48,0.48,0,0,0-.11-0.13l-0.29-.18a2.86,2.86,0,0,1-.34-0.21,0.6,0.6,0,0,1-.15-0.17,0.42,0.42,0,0,1-.05-0.21,0.46,0.46,0,0,1,.15-0.34,0.55,0.55,0,0,1,.39-0.15,0.76,0.76,0,0,1,.31.07l0.11,0,0.06,0a0.22,0.22,0,0,0,0-.09h0.05Z" transform="translate(-303.57 -61.47)"/><path class="cls-2" d="M346.79,105l0,0.44h-0.06a0.58,0.58,0,0,0,0-.17,0.29,0.29,0,0,0-.11-0.12,0.48,0.48,0,0,0-.19,0h-0.26v1.42a0.4,0.4,0,0,0,0,.22,0.22,0.22,0,0,0,.16.06h0.06v0.05h-0.79v-0.05h0.07a0.19,0.19,0,0,0,.17-0.07,0.43,0.43,0,0,0,0-.2v-1.42h-0.22l-0.18,0a0.26,0.26,0,0,0-.12.1,0.42,0.42,0,0,0-.06.2h-0.05l0-.44h1.51Z" transform="translate(-303.57 -61.47)"/><path class="cls-2" d="M348.44,106.24h-0.72l-0.13.3a0.46,0.46,0,0,0,0,.16,0.09,0.09,0,0,0,0,.07,0.34,0.34,0,0,0,.18,0v0.05h-0.59v-0.05a0.33,0.33,0,0,0,.15-0.05,0.83,0.83,0,0,0,.16-0.27l0.65-1.53h0l0.65,1.55a0.78,0.78,0,0,0,.14.25,0.32,0.32,0,0,0,.18.06v0.05h-0.73v-0.05a0.28,0.28,0,0,0,.15,0,0.1,0.1,0,0,0,0-.08,0.63,0.63,0,0,0-.05-0.19Zm0-.1-0.31-.75-0.33.75h0.64Z" transform="translate(-303.57 -61.47)"/><path class="cls-2" d="M349.74,106.86v-0.05h0.07a0.19,0.19,0,0,0,.17-0.07,0.44,0.44,0,0,0,0-.2v-1.21a0.38,0.38,0,0,0,0-.22,0.21,0.21,0,0,0-.16-0.06h-0.07V105h0.76a1.7,1.7,0,0,1,.64.09,0.76,0.76,0,0,1,.35.32,1,1,0,0,1-.1,1.16,1.05,1.05,0,0,1-.81.29h-0.83Zm0.53-.14a1.35,1.35,0,0,0,.29,0,0.69,0.69,0,0,0,.53-0.22,1,1,0,0,0,0-1.22,0.71,0.71,0,0,0-.54-0.22,1.17,1.17,0,0,0-.28,0v1.58Z" transform="translate(-303.57 -61.47)"/><path class="cls-2" d="M353.26,105a0.84,0.84,0,0,1,.63.28,1,1,0,0,1,.27.69,1,1,0,0,1-.27.71,0.9,0.9,0,0,1-1.29,0,1,1,0,0,1-.26-0.71,0.93,0.93,0,0,1,.3-0.72,0.87,0.87,0,0,1,.62-0.24m0,0.1a0.5,0.5,0,0,0-.41.19,1,1,0,0,0-.18.67,1.1,1.1,0,0,0,.19.71,0.48,0.48,0,0,0,.4.18,0.54,0.54,0,0,0,.43-0.2,1,1,0,0,0,.17-0.64,1.14,1.14,0,0,0-.19-0.71,0.51,0.51,0,0,0-.42-0.19" transform="translate(-303.57 -61.47)"/><path class="cls-2" d="M314,94.56v0.18a0.74,0.74,0,0,1,.87.46,2,2,0,0,1,.07.58v5.06c0,0.32,0,.56,0,0.74a1.51,1.51,0,0,1-.12.49,0.71,0.71,0,0,1-.31.33,1.23,1.23,0,0,1-.59.12c-0.35,0-.52-0.09-0.52-0.28a0.5,0.5,0,0,1,0-.17,0.51,0.51,0,0,0,0-.18,0.42,0.42,0,0,0-.09-0.26,0.61,0.61,0,0,0-.24-0.2,0.75,0.75,0,0,0-.34-0.08,0.68,0.68,0,0,0-.7.68,0.76,0.76,0,0,0,.22.55,1.36,1.36,0,0,0,.61.35,3,3,0,0,0,.89.12,4.24,4.24,0,0,0,.73-0.08,2.85,2.85,0,0,0,.87-0.34,1.89,1.89,0,0,0,.72-0.73,2,2,0,0,0,.24-0.63,5.74,5.74,0,0,0,0-.83V95.78a1.77,1.77,0,0,1,.07-0.56,0.84,0.84,0,0,1,.9-0.48V94.56H314Zm1.75,6.55a1.51,1.51,0,0,1-1.35,1.36h0a1.49,1.49,0,0,0,1.25-1.36V95.83a1.12,1.12,0,0,0-1-1l-0.05,0a1.21,1.21,0,0,1,1.17,1v5.28Z" transform="translate(-303.57 -61.47)"/><path class="cls-2" d="M323.52,100.76a3.29,3.29,0,0,1-.55-1l-2.36-5.37h-0.09l-0.4.9,2.15,5c0.25,0.55-.9.63-0.9,0.63l0.11,0c0.32-.05.85-0.2,0.67-0.6l-2.1-4.83-1.88,4.19a4.06,4.06,0,0,1-.56,1,1,1,0,0,1-.58.29v0.18h2.18v-0.18a2,2,0,0,1-.64-0.12,0.44,0.44,0,0,1-.22-0.4,2.24,2.24,0,0,1,2.37-1.68,1.68,1.68,0,0,0-1.65-.15l0.08-.17,0.79-1.78,0.84,1.95,0.29,0.66,0.08,0.17,0.27,0.64c0.09,0.21.14,0.33,0.14,0.36a0.61,0.61,0,0,1,0,.18,0.25,0.25,0,0,1-.11.22,1,1,0,0,1-.53.11h-0.13v0.18H324v-0.18a0.77,0.77,0,0,1-.46-0.17" transform="translate(-303.57 -61.47)"/><path class="cls-2" d="M330.39,98.81a4.67,4.67,0,0,1-.48,1.17,1.66,1.66,0,0,1-.6.58,1.88,1.88,0,0,1-.87.18h-0.55a2.26,2.26,0,0,1-.58,0,0.39,0.39,0,0,1-.22-0.21,2.06,2.06,0,0,1-.06-0.64V95.68a1.89,1.89,0,0,1,.05-0.61,0.46,0.46,0,0,1,.2-0.23,0.93,0.93,0,0,1,.46-0.1H328V94.56h-3.49v0.18h0.22a0.93,0.93,0,0,1,.44.09,0.53,0.53,0,0,1,.21.22,2.1,2.1,0,0,1,.05.63V100a1.92,1.92,0,0,1-.05.61,0.43,0.43,0,0,1-.19.23,0.92,0.92,0,0,1-.46.1h-0.22v0.18h5.82l0.25-2.3h-0.2Zm-5.31,2.1h0c1,0,1.11-.62,1.11-0.62s0-4.09,0-4.85a1,1,0,0,0-1.08-.67l-0.08,0c0.5,0,1.27.18,1.26,0.69,0,0.76,0,4.85,0,4.85s-0.07.61-1.21,0.62" transform="translate(-303.57 -61.47)"/><path class="cls-2" d="M333.69,95.07a0.47,0.47,0,0,1,.2-0.23,0.91,0.91,0,0,1,.46-0.1h0.22V94.56h-3.43v0.18h0.22a0.89,0.89,0,0,1,.44.09,0.52,0.52,0,0,1,.22.22,2.23,2.23,0,0,1,.05.63V100a2,2,0,0,1-.05.61,0.44,0.44,0,0,1-.19.23,0.93,0.93,0,0,1-.46.1h-0.22v0.18h3.43v-0.18h-0.22a0.87,0.87,0,0,1-.44-0.1,0.49,0.49,0,0,1-.22-0.22,2,2,0,0,1-.06-0.63V95.68a2,2,0,0,1,.05-0.61m-2,5.84h0c1,0,1.1-.61,1.1-0.61s0-4.09,0-4.85a1,1,0,0,0-1.08-.67l-0.09,0c0.5,0,1.27.18,1.26,0.69,0,0.76,0,4.85,0,4.85s-0.07.61-1.21,0.62" transform="translate(-303.57 -61.47)"/><path class="cls-2" d="M339.49,98.11A4.59,4.59,0,0,0,337.94,97a9.2,9.2,0,0,1-1-.56,1.6,1.6,0,0,1-.45-0.45,0.75,0.75,0,0,1-.1-0.39,0.8,0.8,0,0,1,.29-0.61,1.11,1.11,0,0,1,.78-0.26,1.72,1.72,0,0,1,1.18.5,2.23,2.23,0,0,1,.69,1.32h0.2l-0.05-2.18h-0.15a0.81,0.81,0,0,1-.13.37,0.25,0.25,0,0,1-.2.08,1.29,1.29,0,0,1-.46-0.16,3.11,3.11,0,0,0-.56-0.21l-0.22,0a1.73,1.73,0,0,0-1.77,1.63c0,1.69,3.58,1.6,3.51,3.57,0,1-1.24,1.31-1.74,1.29l0.23,0H338a1.39,1.39,0,0,0,1.34-1.26c0.07-2-3.47-1.87-3.51-3.57a1.75,1.75,0,0,1,1.85-1.64l-0.36,0a2,2,0,0,0-1.45.55,1.78,1.78,0,0,0-.57,1.33,1.69,1.69,0,0,0,.21.84,2.32,2.32,0,0,0,.6.69,7.85,7.85,0,0,0,1.28.75,5.38,5.38,0,0,1,.89.51,1.45,1.45,0,0,1,.38.41,0.92,0.92,0,0,1,.12.45,0.89,0.89,0,0,1-.32.69,1.2,1.2,0,0,1-.86.3,1.92,1.92,0,0,1-1.31-.55,2.83,2.83,0,0,1-.82-1.59H335.3v2.48h0.18a0.61,0.61,0,0,1,.23-0.3,0.48,0.48,0,0,1,.27-0.1,1,1,0,0,1,.38.1,4.44,4.44,0,0,0,.69.24,2.79,2.79,0,0,0,.59.06,2.31,2.31,0,0,0,1.63-.59,1.86,1.86,0,0,0,.64-1.41,1.79,1.79,0,0,0-.4-1.15" transform="translate(-303.57 -61.47)"/><path class="cls-2" d="M353.8,95.38a3.29,3.29,0,0,0-2.55-.91,3.16,3.16,0,0,0-2.44.91,3.26,3.26,0,0,0-1,2.43,3.47,3.47,0,0,0,.76,2.24,3.3,3.3,0,0,0,2.73,1.2A3.25,3.25,0,0,0,354,100a3.5,3.5,0,0,0,.73-2.19,3.31,3.31,0,0,0-1-2.43m-2.5,5.77h0c-0.35,0-2.7-.27-2.71-3.29,0-3.27,2.76-3.27,2.76-3.27s2.77,0,2.76,3.27-2.76,3.29-2.76,3.29" transform="translate(-303.57 -61.47)"/><path class="cls-2" d="M353.93,97.86c0-3.27-2.64-3.27-2.64-3.27s-2.66,0-2.64,3.28c0,3,2.24,3.26,2.59,3.28h0s2.63,0,2.64-3.29m-1.14,1.81a2,2,0,0,1-.66,1,1.37,1.37,0,0,1-.83.24,1.34,1.34,0,0,1-1.15-.56,4.21,4.21,0,0,1-.59-2.48,4.86,4.86,0,0,1,.38-2.16,1.49,1.49,0,0,1,2.23-.65,1.87,1.87,0,0,1,.62.91A5.94,5.94,0,0,1,353,97.9a5.54,5.54,0,0,1-.23,1.77" transform="translate(-303.57 -61.47)"/><path class="cls-2" d="M343.47,95.2a2,2,0,0,1,1.13-.35,2,2,0,0,1,1.31.47,2.4,2.4,0,0,1,.79,1.36h0.19V94.41H346.7a0.66,0.66,0,0,1-.15.36,0.38,0.38,0,0,1-.27.11,2.23,2.23,0,0,1-.57-0.17,4,4,0,0,0-1.46-.3,3.59,3.59,0,0,0-1.77.46,3.43,3.43,0,0,0-1.32,1.3,3.48,3.48,0,0,0-.49,1.78,3.4,3.4,0,0,0,.44,1.68,3,3,0,0,0,1.25,1.21,4,4,0,0,0,1.86.42,3.53,3.53,0,0,0,1.4-.26,3.62,3.62,0,0,0,1.15-.83V99.6a3.9,3.9,0,0,1-1.09.93,2.36,2.36,0,0,1-1.13.27,1.93,1.93,0,0,1-1.23-.37,2.12,2.12,0,0,1-.7-1.09,5.5,5.5,0,0,1-.22-1.6,4.17,4.17,0,0,1,.3-1.62,2.05,2.05,0,0,1,.75-0.92m-1.88,2.64c0.06,2.32,1.41,3.17,2.74,3.21-1.38,0-2.77-.76-2.84-3.18-0.07-2.6,1.48-3.33,2.87-3.3-1.34,0-2.83.78-2.77,3.28" transform="translate(-303.57 -61.47)"/><path class="cls-2" d="M334.08,67.14l-0.24,1.1,0.24,0.39,0.23-.39Zm0,1.34-0.16-.26,0.16-.92,0,0.93Z" transform="translate(-303.57 -61.47)"/><polygon class="cls-2" points="34.12 19.16 34.27 19 34.42 19.16 34.53 19.05 34.37 18.9 34.53 18.75 34.42 18.64 34.27 18.8 34.12 18.64 34.01 18.75 34.16 18.9 34.01 19.05 34.12 19.16"/><polygon class="cls-2" points="34.46 22 34.3 22.17 34.14 22 34.02 22.11 34.19 22.28 34.02 22.44 34.14 22.55 34.3 22.39 34.46 22.55 34.57 22.44 34.41 22.28 34.57 22.11 34.46 22"/><polygon class="cls-2" points="26.25 19.16 26.42 18.99 26.59 19.16 26.71 19.05 26.54 18.88 26.71 18.7 26.59 18.58 26.42 18.76 26.25 18.58 26.13 18.7 26.3 18.88 26.13 19.05 26.25 19.16"/><polygon class="cls-2" points="26.67 22.45 26.5 22.28 26.67 22.1 26.55 21.98 26.38 22.16 26.2 21.98 26.08 22.1 26.25 22.28 26.08 22.45 26.2 22.57 26.38 22.4 26.55 22.57 26.67 22.45"/><polygon class="cls-2" points="26.9 25.53 26.75 25.68 26.61 25.53 26.5 25.63 26.65 25.78 26.5 25.92 26.61 26.02 26.75 25.88 26.9 26.02 27 25.92 26.85 25.78 27 25.63 26.9 25.53"/><polygon class="cls-2" points="34.1 25.51 33.94 25.66 33.78 25.51 33.67 25.62 33.82 25.78 33.67 25.93 33.78 26.04 33.94 25.89 34.1 26.04 34.21 25.93 34.05 25.78 34.21 25.62 34.1 25.51"/><polygon class="cls-2" points="30.5 27.79 30.33 27.96 30.16 27.79 30.05 27.91 30.21 28.07 30.05 28.24 30.16 28.36 30.33 28.19 30.5 28.36 30.61 28.24 30.44 28.07 30.61 27.91 30.5 27.79"/><path class="cls-2" d="M334.29,79.42c0.39-.21.75-1,1.39-0.84-0.76-.29-0.8-0.33-0.82-0.75a1.43,1.43,0,0,1-.92.63,0.73,0.73,0,0,1,.35,1" transform="translate(-303.57 -61.47)"/><path class="cls-2" d="M333.07,79.59a1.14,1.14,0,0,1-.74.42,3.13,3.13,0,0,1,1.2-1.57,0.5,0.5,0,0,1-.27-0.06,4.43,4.43,0,0,0-1.1,1.51,0.8,0.8,0,0,1-.19.27,1.12,1.12,0,0,0,1.1-.57" transform="translate(-303.57 -61.47)"/><path class="cls-2" d="M333.33,78.25a0.6,0.6,0,0,0,.26,0,1,1,0,0,1,.16-0.75,0.8,0.8,0,0,1-.45.06,1.14,1.14,0,0,1,0,.66" transform="translate(-303.57 -61.47)"/><path class="cls-2" d="M332.84,79.5v0a0.09,0.09,0,0,0,.08.09,0.08,0.08,0,0,0,.08-0.09,0.08,0.08,0,0,0-.08-0.07,0.11,0.11,0,0,0-.08.06" transform="translate(-303.57 -61.47)"/><path class="cls-2" d="M332.56,79.76v0a0.08,0.08,0,1,0,.15,0,0.08,0.08,0,0,0-.07-0.08,0.1,0.1,0,0,0-.08.06" transform="translate(-303.57 -61.47)"/><path class="cls-2" d="M333.31,79.34a0.05,0.05,0,0,0-.06,0,0.05,0.05,0,0,0,0,0,0.08,0.08,0,0,0,.07.08,0.07,0.07,0,0,0,.08-0.08,0.07,0.07,0,0,0-.08-0.08" transform="translate(-303.57 -61.47)"/><path class="cls-2" d="M333.67,79.44v0a0.08,0.08,0,0,0,.15,0,0.07,0.07,0,0,0-.08-0.08,0.09,0.09,0,0,0-.08,0" transform="translate(-303.57 -61.47)"/><path class="cls-2" d="M334.14,79.29a0.05,0.05,0,0,0-.06,0,0.07,0.07,0,0,0,0,0,0.09,0.09,0,0,0,.07.07,0.1,0.1,0,0,0,.09-0.07,0.08,0.08,0,0,0-.09-0.08" transform="translate(-303.57 -61.47)"/><path class="cls-2" d="M334.07,76.54a0.09,0.09,0,0,0,0-.18,0.08,0.08,0,0,0-.08.06v0a0.09,0.09,0,0,0,.08.09" transform="translate(-303.57 -61.47)"/><path class="cls-2" d="M335.12,75.17a1.64,1.64,0,0,0,.38.27,2.63,2.63,0,0,1-.44-0.47,3.09,3.09,0,0,0,.29,1.11,4.18,4.18,0,0,1-.23-0.91" transform="translate(-303.57 -61.47)"/><path class="cls-2" d="M335.25,74.48c0.14,0.14.19,0.36,0.46,0.71a1.58,1.58,0,0,0-.58-0.82,3.74,3.74,0,0,1,.23.61,2.37,2.37,0,0,0-.11-0.5" transform="translate(-303.57 -61.47)"/><path class="cls-2" d="M336.12,78.3c0.87-.21.8,0.85,1.73,0.88a1.6,1.6,0,0,1-.87-0.83c0.86,0.36,1.48,1,2.22.53-1.16.2-2.45-1.21-3.08-.57" transform="translate(-303.57 -61.47)"/><path class="cls-2" d="M340.21,82.7a3,3,0,0,0-.2.92,4.09,4.09,0,0,1-.17-1.06,5.4,5.4,0,0,0,.72,2.9,5,5,0,0,1-.36-2.76" transform="translate(-303.57 -61.47)"/><path class="cls-2" d="M341.77,86.7a2.29,2.29,0,0,0,0-1.49c1.86-.73,0-2.63-0.18-3.24a2.58,2.58,0,0,1,0-2.34c0.41-1.71-1.23-.92-1.5-1a1,1,0,0,0,.47-1.13,1.32,1.32,0,0,1-.75.38,1.94,1.94,0,0,0,.32-0.88,1.63,1.63,0,0,1-1.89.3,2,2,0,0,0-1.54,0,5.64,5.64,0,0,0-1.31.86l-0.34-.26L335,77.79a0.3,0.3,0,0,0-.09-0.3,0.72,0.72,0,0,1,.09-0.25,3.06,3.06,0,0,0,.31-0.38l0.06-.11a0.7,0.7,0,0,0,.32.2l0.1,0-0.05-.1a1,1,0,0,1-.07-0.21l0.07,0,0.18,0.08-0.07-.13a0.75,0.75,0,0,1-.13-0.39V76.2a0.56,0.56,0,0,0,0-.16,0.28,0.28,0,0,0,.11,0h0.1L335.82,76a0.61,0.61,0,0,1-.12-0.29v0l0.07,0a1.63,1.63,0,0,1,.35.29,0.82,0.82,0,0,0,0-.16,1.25,1.25,0,0,0-.07-0.16l0.07,0a0.32,0.32,0,0,1,.11.09l0.1,0.13,0-.17a0.5,0.5,0,0,0-.11-0.27l0.12,0,0.13,0a1.28,1.28,0,0,1-.4-0.73,0.88,0.88,0,0,0-.86-0.87,0.46,0.46,0,0,0,0-.54,1,1,0,0,0-.94-0.36V73.2h0a0.42,0.42,0,0,0-.19,0l-0.12,0L334,73.32h0a0.34,0.34,0,0,0-.28.22h0a0.74,0.74,0,0,0-.92.41l0,0,0,0a0.22,0.22,0,0,0,.15,0,2.89,2.89,0,0,0-.2.28l-0.13.19,0,0a0.27,0.27,0,0,0,.27-0.1,0.35,0.35,0,0,0,0,.12,0.13,0.13,0,0,0,0,.06l0,0.08,0.06-.06a0.21,0.21,0,0,1,.13-0.09,0.6,0.6,0,0,0,.17-0.08l0,0,0,0.08,0-.08a0.27,0.27,0,0,1,.23-0.15h0a0.37,0.37,0,0,0,.38-0.06l0.09-.06h0a0.26,0.26,0,0,1,0,.11,0.6,0.6,0,0,0-.14.25H334a2.12,2.12,0,0,0-1.49.84,0.22,0.22,0,0,0-.18.17,0.14,0.14,0,0,0,0,.1s0,0,0,.06a1.47,1.47,0,0,0,.22,1.43h0.05l0.11,0.1a0.19,0.19,0,0,0,.2.18H333a0.28,0.28,0,0,1,.18.09,0.66,0.66,0,0,1,0,.51,0.11,0.11,0,0,0-.09.06,0.14,0.14,0,0,0,0,.12,3.45,3.45,0,0,0-.58.63,4.91,4.91,0,0,0-1.3.09c-1.65.71-1.74,0.32-2.61,0.49-0.83.44,0.19,1.22-.56,2.28a16.56,16.56,0,0,0-.45-1.74c-0.62,1.06,1.88,3.35.81,4.18a1.77,1.77,0,0,0-.51,2A1.75,1.75,0,0,1,328.4,85a1.64,1.64,0,0,0,.26,1.69c1.24,1.16.44,1.63,0.08,1.81a1.64,1.64,0,0,0-.66-1.77c1.19,1.91-.06,3.25-1,2.17,1-1.69.08-1.19,0-3.06a2.58,2.58,0,0,0,0,1.18A1,1,0,0,1,325.61,88a0.9,0.9,0,0,0,.69-1.27c-0.92-1.41,1.1-2.93.86-4.53-0.06,1.21-.88,1.62-1.07,2.63a1.15,1.15,0,0,1-.36-1.51,4.4,4.4,0,0,0,.75-3.09c0.35,0.36.14,1.72,0.26,2.25a2.74,2.74,0,0,0,.11-1.51,3.39,3.39,0,0,1,.57,1.07c0.35-.83-3-4.18.83-3.2a1.11,1.11,0,0,1-.89-1c1.43,1,2,0,2.79-.12-1.27.15-1.87,0.8-2.18-.3,0.83,0.55,2-.61,3.17,0s0.77,0.77,1.72,1l0.12-.12c-1.06-.25-0.58-0.43-2-1.08a2,2,0,0,0-1.54,0,1.62,1.62,0,0,1-1.88-.3,1.87,1.87,0,0,0,.32.88,1.34,1.34,0,0,1-.76-0.38,1,1,0,0,0,.47,1.13c-0.27,0-1.9-.74-1.5,1a2.59,2.59,0,0,1,0,2.34c-0.15.62-2,2.52-.18,3.24a2.31,2.31,0,0,0,0,1.49c0.12,0.57,0,1-1.24,1.16,0.36,0.39,1.84,1.57,2.49-.42,0.24,0.36-.39,1.25-0.72,1.45a1.1,1.1,0,0,0,2-.12,2.31,2.31,0,0,0,.95-0.57,5,5,0,0,0,8.69,0,2.38,2.38,0,0,0,.94.56,1.09,1.09,0,0,0,2,.12c-0.33-.2-1-1.09-0.72-1.45,0.65,2,2.13.81,2.49,0.42-1.28-.12-1.35-0.59-1.24-1.16m-7.49-12.23a0.3,0.3,0,0,0,.05-0.17,0.1,0.1,0,0,0-.17-0.09l-0.1.06a0.27,0.27,0,0,1-.31,0h-0.07a0.53,0.53,0,0,0-.23.11V74.34l-0.08.05a0.55,0.55,0,0,1-.2.1l-0.08,0,0-.09a0.31,0.31,0,0,0,0-.09v-0.1l-0.19.14-0.09.06,0-.05a2.41,2.41,0,0,1,.26-0.36h0a0.83,0.83,0,0,1,.41-0.08,1.32,1.32,0,0,0-.19.35,1.37,1.37,0,0,1,.29-0.38,0.7,0.7,0,0,0-.51.1l0.07-.08H333a0.64,0.64,0,0,1,.78-0.34l0.1,0h0a1,1,0,0,0-.24.57,0.9,0.9,0,0,0,.46-0.24,0.17,0.17,0,0,0,.07.14,0.54,0.54,0,0,0,.15-0.21c0.11,0,.33.1,0,0.45,0.2-.14.41-0.63,0-0.56a0.35,0.35,0,0,1-.15.24,0.13,0.13,0,0,1-.06-0.17,0.58,0.58,0,0,1-.38.26c0.08-.24-0.07-0.39.27-0.51h-0.12v0a0.26,0.26,0,0,1,.32-0.19l0.16,0-0.12-.12,0,0a0.25,0.25,0,0,1,.19,0l0.1,0.06,0-.11a0.27,0.27,0,0,0-.06-0.11,0.89,0.89,0,0,1,.71.34,0.39,0.39,0,0,1,0,.5l-0.06.08h0.08a0.56,0.56,0,0,1-.24.23,0.22,0.22,0,0,1,.17,0,0.62,0.62,0,0,0-.34.17,0.2,0.2,0,0,1,.06.18,0.47,0.47,0,0,0-.36.26,0.4,0.4,0,0,1,.61,0,0.9,0.9,0,0,0-.21-0.19,0.31,0.31,0,0,0,0-.17,0.41,0.41,0,0,1,.36-0.15,0.23,0.23,0,0,0-.14-0.12,0.5,0.5,0,0,1,.62-0.09,1,1,0,0,1,.37.69,1.44,1.44,0,0,0,.19.51L336,75.34l0.09,0.12a2.12,2.12,0,0,1,.13.21l0,0a0.88,0.88,0,0,1-.35-0.33s0,0,0,.07,0.05,0.19.05,0.19l0.07,0.13-0.12-.06a0.6,0.6,0,0,1-.25-0.12,0.27,0.27,0,0,1,0,.22,0.46,0.46,0,0,0,.06.2,1.81,1.81,0,0,1-.21-0.17,0.62,0.62,0,0,1,.15.45s0,0,0,0v0a0.63,0.63,0,0,0,.08.3,0.3,0.3,0,0,1-.16-0.11,1.11,1.11,0,0,0,0,.23l0,0.12a1,1,0,0,1-.48-0.82V75.94L335,76l-0.06,0a0.91,0.91,0,0,1,0-.18l-0.06-.24-0.05,0-0.05,0h0a0.51,0.51,0,0,1,0-.2,0.43,0.43,0,0,0-.07-0.29,0.23,0.23,0,0,0-.09-0.05,0.6,0.6,0,0,1-.38-0.31,0.43,0.43,0,0,1,0,0,0.45,0.45,0,0,1,.13-0.28m-1.7,2.64a1.19,1.19,0,0,1-.11-1.21,0.21,0.21,0,0,1,.17-0.09,2.62,2.62,0,0,1,1.22.51,0.21,0.21,0,0,0,0,.23,4.94,4.94,0,0,1-1.32.56m0.21,0.26-0.09-.12a3.05,3.05,0,0,0,1.21-.65,0.08,0.08,0,0,0,0,0,2.33,2.33,0,0,1-1.16.73m1.13-.91V76.39a0.18,0.18,0,0,1,.16-0.11,0.17,0.17,0,0,1,.16.17,0.16,0.16,0,0,1-.16.15,0.15,0.15,0,0,1-.16-0.15m-0.73,1.87s-0.07-.14,0-0.15a0.71,0.71,0,0,0,0-.59,0.36,0.36,0,0,0-.21-0.11H333a2.17,2.17,0,0,0,1.05-.8,0.24,0.24,0,1,0-.09-0.42,2.92,2.92,0,0,0-1.41-.72,2.06,2.06,0,0,1,1.45-.82H334v0a0.27,0.27,0,0,0,0,.05,2.14,2.14,0,0,0-1.29.69,1.53,1.53,0,0,1,.4.14,1.31,1.31,0,0,1,.9-0.8,0.68,0.68,0,0,0,.44.37l0.06,0h0a0.41,0.41,0,0,1,0,.23,0.36,0.36,0,0,0,.1.32l0,0h0l0,0,0,0.1a1.29,1.29,0,0,0,.07.25l0,0,0,0,0.08,0h0a1.24,1.24,0,0,0,.11.39,1.24,1.24,0,0,1-.62.9c0.21,0.26.09,0.51-.59,1a1.41,1.41,0,0,0,.92-0.75,0.25,0.25,0,0,1,.06.27,5.12,5.12,0,0,1,.92.8,0.41,0.41,0,0,1,.14.2c0.05,0.14,0,.38-0.47.38h-0.11l0,0h0c0.85,0,.35-1-0.48,0a1.57,1.57,0,0,1-1.17.64,2.67,2.67,0,0,1-.55-0.06,1.35,1.35,0,0,1-1.08.62,0.88,0.88,0,0,1-.33-0.06,0.1,0.1,0,0,1,.08-0.18h0a7.69,7.69,0,0,1,1.31-1.81m6.36,3.79a6.35,6.35,0,0,0-.61,1.58V79.65h-0.33c0.4,0,.77,0,0.81.46a2.42,2.42,0,0,0,.14,2M338.91,84a0.12,0.12,0,0,1,0,0,0.12,0.12,0,0,0,0,0m0-.08v0m0-.09a0.54,0.54,0,0,1,0-.08,0.54,0.54,0,0,0,0,.08m0,0.46a0,0,0,0,0,0,0,0,0,0,0,1,0,0m0-.08a0.08,0.08,0,0,1,0,0,0.08,0.08,0,0,0,0,0m0,1.61V84.31a1,1,0,0,0,.32.57c0.36,1.28-.49,2-0.91,2.57,0.12-.17.29-0.36,0.45-0.57a4.76,4.76,0,0,0,.13-1.1m-4-6.59h0l-0.13.12,0.13-.12m0.36,0h0m1.1,0-0.13,0h-0.41l0,0,0.09-.06a3.23,3.23,0,0,1,.5.05m-0.6,0-0.05,0,0.05,0m-0.07,0h0m-0.07,0h0m-0.09,0h0m-3.16-.12,0,0h-0.86l-0.13,0a4.11,4.11,0,0,1,1,0m-3.1.53h0m-1,2.46a2.41,2.41,0,0,0,.14-2,0.45,0.45,0,0,1,.48-0.46v4.13h0a6,6,0,0,0-.62-1.67m0.29,2.76a1,1,0,0,0,.33-0.64v1.51a5,5,0,0,0,.14,1.16l0.32,0.39a2.49,2.49,0,0,1-.79-2.42m1,2.64,0,0,0,0m-0.16-.21,0,0,0,0m0,0.05,0,0,0,0m0,0,0,0,0,0m0,0.07,0,0,0,0m0.07,0.09h0m0.09,0.53h0m-0.07-.49h0m0,0h0m0,0.11h0m0,0h0m0,0h0Zm0,0h0Zm0,0.11h0Zm0,0h0Zm0,0h0Zm4.27,1.88a4.34,4.34,0,0,1-4.34-4.27V79.94H332l-0.11.15h0a0.15,0.15,0,0,0-.17.12,0.16,0.16,0,0,0,.08.17,1,1,0,0,0,.34.06,1.36,1.36,0,0,0,1-.49h5.16v5.74a4.34,4.34,0,0,1-4.33,4.25m-1.8-10.28,0,0.06,0-.06m-0.07.13,0,0.06,0-.06m6.2,7.82,0,0,0,0m0,0,0,0,0,0m0,0.06v0m0,0v0m0,0v0m0,0v0Zm0,0v0Zm0,0h0Zm0.09,0.26h0M338.15,88h0Zm0,0a0.05,0.05,0,0,0,0,0,0,0,0,0,1,0,0m0,0v0m0,0v0m0,0v0m0.09-.6,0,0,0,0m0,0,0,0,0,0m0.08-.12,0,0,0,0m2.36-.47a2.58,2.58,0,0,0,0-1.18c-0.06,1.87-1,1.37,0,3.06-0.92,1.07-2.17-.27-1-2.17a1.63,1.63,0,0,0-.66,1.77c-0.36-.18-1.16-0.65.08-1.81a1.64,1.64,0,0,0,.26-1.69,1.75,1.75,0,0,1,.48,1.29,1.77,1.77,0,0,0-.52-2c-1.07-.83,1.43-3.12.82-4.18a16.13,16.13,0,0,0-.45,1.74c-0.75-1.06.27-1.84-.56-2.28-0.88-.18-1,0.21-2.61-0.49A3.33,3.33,0,0,0,336,79a0.27,0.27,0,0,0,0-.16,0.36,0.36,0,0,0-.12-0.19l0,0a1.81,1.81,0,0,0-.27-0.29,4.26,4.26,0,0,1,1.09-.75c1.18-.64,2.34.52,3.17,0-0.3,1.1-.91.46-2.17,0.3,0.83,0.12,1.36,1.12,2.79.12a1.11,1.11,0,0,1-.89,1c3.83-1,.48,2.37.83,3.2A3.39,3.39,0,0,1,341,81a2.7,2.7,0,0,0,.11,1.51c0.12-.53-0.09-1.89.26-2.25a4.39,4.39,0,0,0,.75,3.09,1.15,1.15,0,0,1-.36,1.51c-0.19-1-1-1.42-1.07-2.63-0.24,1.6,1.78,3.12.86,4.53a0.9,0.9,0,0,0,.69,1.27A1,1,0,0,1,340.71,87" transform="translate(-303.57 -61.47)"/><path class="cls-2" d="M330,79.17c0.93,0,.86-1.09,1.73-0.88-0.63-.63-1.92.77-3.08,0.57,0.74,0.42,1.36-.17,2.22-0.53a1.61,1.61,0,0,1-.87.83" transform="translate(-303.57 -61.47)"/><path class="cls-2" d="M328,82.57a4,4,0,0,1-.16,1.06,2.91,2.91,0,0,0-.2-0.92,5,5,0,0,1-.36,2.76,5.36,5.36,0,0,0,.72-2.9" transform="translate(-303.57 -61.47)"/><path class="cls-2" d="M335.25,71.58h0" transform="translate(-303.57 -61.47)"/><path class="cls-2" d="M332,84.81s0,0,0,0,0,0,0,0l-0.06,0,0,0.06s0,0,.06,0" transform="translate(-303.57 -61.47)"/><path class="cls-2" d="M335.78,84.79s0,0-.06,0l0,0.06,0.06,0s0,0,0,0,0,0,0,0" transform="translate(-303.57 -61.47)"/><path class="cls-2" d="M337.47,80.72h-7.15v4.86a3.58,3.58,0,0,0,7.15,0V80.72Zm-2.82,7.89a1.92,1.92,0,0,0-.77-0.35,2,2,0,0,0-.77.35c0-.17.42-0.35,0.42-0.45a0.76,0.76,0,0,0-.65.14,0.91,0.91,0,0,1,.53-0.36c0.12,0,.23,0,0.21-0.35,0-.48,0-0.9,0-1.27h0a0.05,0.05,0,0,0,0,0,0.14,0.14,0,0,1,0,.11,0.73,0.73,0,0,1-.09,0s0,0.09,0,.14l-0.12,0s0,0,0,0l0,0.07-0.11,0s-0.06,0-.09-0.09a0.11,0.11,0,0,1,0-.09,0.24,0.24,0,0,0-.08-0.13,0.09,0.09,0,0,1,0,.06,0.2,0.2,0,0,0-.14-0.18,0.33,0.33,0,0,0-.24-0.09l-0.06,0a0.28,0.28,0,0,1,0,.11,0.31,0.31,0,0,1-.12-0.12,0.43,0.43,0,0,0,0-.14,1.21,1.21,0,0,1-.41.65,0.54,0.54,0,0,0,.27-0.09c0.15-.17.21-0.21,0.33-0.17a0.19,0.19,0,0,0,.21,0,0.2,0.2,0,0,1,.21.12,0.35,0.35,0,0,1,.06.12,0.24,0.24,0,0,0-.18,0,0.22,0.22,0,0,1-.12,0,0.42,0.42,0,0,1,0,.17,0.33,0.33,0,0,0,0,.16,0.15,0.15,0,0,1-.07,0,0.23,0.23,0,0,0,0,.14l0,0s0,0.09,0,.08a0.41,0.41,0,0,0,.33-0.1l0.09-.09,0.11-.06a0.06,0.06,0,0,1,.09,0l0,0a0.17,0.17,0,0,1,.09.06h-0.06s0,0,0,.07l0.06,0-0.08,0,0,0c0,0.08.07,0,.09,0.06a0.06,0.06,0,0,1,0,0l-0.09,0-0.12,0a0.53,0.53,0,0,1-.18,0,0.38,0.38,0,0,0-.2.06,0.3,0.3,0,0,1-.32,0c-0.15,0-.17,0-0.14-0.14a0.14,0.14,0,0,0,0-.15c-0.06,0-.06-0.07-0.09-0.09a0.31,0.31,0,0,0,.07.21,0.17,0.17,0,0,1-.12-0.12,0.27,0.27,0,0,0-.12-0.1,0.52,0.52,0,0,0-.17,0s0,0,0,0a0.33,0.33,0,0,1,.06.42,0.49,0.49,0,0,0,.08.18,0.84,0.84,0,0,1,0,.38,0.31,0.31,0,0,0-.07-0.21,0.2,0.2,0,0,0-.08-0.07,0.13,0.13,0,0,1-.18.06,0.12,0.12,0,0,0-.11.08v0.15s0,0.07.15,0.07L332,88a0.16,0.16,0,0,1,.08,0s0,0.09,0,.14-0.09,0-.12,0a0,0,0,0,0,0,0s0,0.08-.18,0a0.17,0.17,0,0,0-.17-0.09,0.05,0.05,0,0,1-.06-0.07,0.25,0.25,0,0,0,.09-0.2,0.34,0.34,0,0,0,0-.12,0.08,0.08,0,0,1,.07-0.14,0.13,0.13,0,0,0,.12-0.17,0.3,0.3,0,0,0-.11-0.17,0.38,0.38,0,0,1-.08-0.3,0.5,0.5,0,0,1-.39-0.5,4.19,4.19,0,0,1,0-.47s0-.57-0.15-0.41c0,0-.08-0.1,0-0.15a0.35,0.35,0,0,1-.06-0.26,0.83,0.83,0,0,0-.08-0.32,0.4,0.4,0,0,1,.2.28,0.36,0.36,0,0,0,.09.24,0.55,0.55,0,0,1,.09.45c0,0.17,0,.33,0,0.5a0.44,0.44,0,0,0,.35.5,0.75,0.75,0,0,0,.15-0.83,0.1,0.1,0,0,1-.12,0,0.22,0.22,0,0,0-.11-0.26,0.14,0.14,0,0,1,0-.12,0.08,0.08,0,0,1-.15,0s0.08,0,0-.14a0.3,0.3,0,0,1,0-.21,0.16,0.16,0,0,1-.09-0.18s0.1,0.06.13,0l0-.06a0.13,0.13,0,0,1,0-.15,0.12,0.12,0,0,0,.18,0,0.16,0.16,0,0,1,.15-0.06H332c0.15-.06.15,0,0.18,0a0.17,0.17,0,0,1,.11,0s0,0,0,0v0.11a0.14,0.14,0,0,1-.08.1,0.12,0.12,0,0,0-.08,0,0.15,0.15,0,0,0-.06,0c-0.08,0-.09,0-0.09.06s0,0.17.09,0.14a0.1,0.1,0,0,0,0-.06,0.11,0.11,0,0,1,.06,0,0.06,0.06,0,0,1,0,.1c0,0.08-.12,0-0.14,0a0,0,0,0,0-.06,0,0.15,0.15,0,0,0,.21,0,0.34,0.34,0,0,1,.21-0.11s0.08,0,.09-0.1a0.13,0.13,0,0,1,.07.1,0.29,0.29,0,0,0,.29-0.16s0.06,0,.06.09a0.53,0.53,0,0,0,.23-0.3,0.16,0.16,0,0,1,.09-0.14,0.15,0.15,0,0,1,.09,0,0.08,0.08,0,0,1,.11,0c0.1,0,.1,0,0.12,0a0.23,0.23,0,0,1,0,.22,0.14,0.14,0,0,1,0,.06V85h0a0.26,0.26,0,0,1,0,.11,0.17,0.17,0,0,0,0-.09h0a0.23,0.23,0,0,0-.06.1s0,0,0-.06a0,0,0,0,0,0,0,0.86,0.86,0,0,0-.12.26s0,0.09,0,.14a0.24,0.24,0,0,1-.21.21s0,0,0,0a0.27,0.27,0,0,1,.15.14,0.47,0.47,0,0,0,.21.18,0.43,0.43,0,0,1-.44-0.2,0.08,0.08,0,0,0,0,0,0.16,0.16,0,0,0,.09.15,0.85,0.85,0,0,0,.36.27,0.18,0.18,0,0,0,.17,0,0.17,0.17,0,0,1,.15,0,0.07,0.07,0,0,0,0,0c0-1.09,0-1.72.07-2.1l-0.13-.12c-0.18.26-.47-0.1-0.55-0.1a0.25,0.25,0,0,1-.27,0,0.25,0.25,0,0,1-.32-0.18,0.32,0.32,0,0,1-.24-0.38c-0.15-.08-0.18-0.26,0-0.48a0.46,0.46,0,0,1,.17-0.7,0.23,0.23,0,0,1,.26-0.24,0.33,0.33,0,0,1,.44-0.25,0.24,0.24,0,0,1,.38-0.11,0.32,0.32,0,0,1,.5-0.08,0.33,0.33,0,0,1,.51.08,0.24,0.24,0,0,1,.38.11,0.33,0.33,0,0,1,.43.25,0.22,0.22,0,0,1,.26.24,0.47,0.47,0,0,1,.17.7c0.14,0.22.11,0.41,0,.48a0.33,0.33,0,0,1-.26.38A0.25,0.25,0,0,1,335,84a0.26,0.26,0,0,1-.27,0c-0.06,0-.36.36-0.53,0.12l-0.14.1c0,0.51.08,1.49,0.08,3.38,0,0.32.08,0.35,0.2,0.35a0.92,0.92,0,0,1,.53.36,0.77,0.77,0,0,0-.65-0.14c0,0.11.38,0.29,0.42,0.45m0.83-3.55a0.18,0.18,0,0,1,.21,0,1.36,1.36,0,0,0-.36,0,0.12,0.12,0,0,1,0-.22c-0.06.22,0.15,0.16,0.2,0.16m1.24,0a0.37,0.37,0,0,1-.08.26,0.1,0.1,0,0,1,0,.15c-0.2-.16-0.15.38-0.15,0.41a4.28,4.28,0,0,1,0,.47,0.5,0.5,0,0,1-.39.5,0.33,0.33,0,0,1-.08.3,0.23,0.23,0,0,0-.09.17,0.12,0.12,0,0,0,.12.17,0.08,0.08,0,0,1,.08.14,0.17,0.17,0,0,0,0,.12,0.2,0.2,0,0,0,.09.2c0,0.06,0,.07-0.08.07a0.16,0.16,0,0,0-.15.09c-0.15.11-.18,0-0.18,0s0,0,0,0-0.06,0-.14,0a0.86,0.86,0,0,0,.06-0.14,0.12,0.12,0,0,1,.08,0l0.09,0a0.14,0.14,0,0,0,.15-0.07s0-.14,0-0.15a0.1,0.1,0,0,0-.09-0.08,0.16,0.16,0,0,1-.2-0.06,0.55,0.55,0,0,0-.06.07,0.31,0.31,0,0,0-.08.21,0.82,0.82,0,0,1,0-.38,1.42,1.42,0,0,0,.06-0.18,0.37,0.37,0,0,1,.06-0.42,0.06,0.06,0,0,0,0,0,0.46,0.46,0,0,0-.15,0,0.2,0.2,0,0,0-.12.1,0.19,0.19,0,0,1-.12.12,0.29,0.29,0,0,0,.06-0.21s0,0-.09.09a0.19,0.19,0,0,0,0,.15c0,0.11,0,.14-0.12.14a0.33,0.33,0,0,1-.33,0,0.32,0.32,0,0,0-.18-0.06,0.61,0.61,0,0,1-.18,0l-0.14,0a0.14,0.14,0,0,0-.08,0s0,0,0,0,0.08,0,.09-0.06l-0.06,0-0.06,0a0.08,0.08,0,0,1,.06,0s0,0,0-.07H334.2a0.13,0.13,0,0,1,.07-0.06l0,0a0.08,0.08,0,0,1,.11,0l0.09,0.06a0.81,0.81,0,0,1,.09.09,0.44,0.44,0,0,0,.33.1C335,87.12,335,87,335,87l0,0a0.26,0.26,0,0,0,0-.14,0.09,0.09,0,0,1-.08,0,0.34,0.34,0,0,0,0-.16c0-.1,0-0.12,0-0.17a0.35,0.35,0,0,1-.12,0,0.26,0.26,0,0,0-.18,0l0.08-.12a0.2,0.2,0,0,1,.21-0.12,0.19,0.19,0,0,0,.22,0c0.12,0,.18,0,0.33.17a0.53,0.53,0,0,0,.27.09,1.14,1.14,0,0,1-.41-0.65,0.4,0.4,0,0,0,0,.14,0.34,0.34,0,0,1-.14.12,0.54,0.54,0,0,0,0-.11,0.21,0.21,0,0,1-.06,0,0.35,0.35,0,0,0-.26.09,0.26,0.26,0,0,0-.13.18,0.08,0.08,0,0,1,0-.06,0.17,0.17,0,0,0-.08.13,0.54,0.54,0,0,0,0,.09c0,0.09-.06.09-0.11,0.09l-0.09,0a0.14,0.14,0,0,1,0-.07s0,0,0,0l-0.12,0s0.06-.12,0-0.14a0.42,0.42,0,0,1-.09,0,0.14,0.14,0,0,1,0-.11s0,0,0,0h0a0.56,0.56,0,0,1,0-.06,0.14,0.14,0,0,1,.14,0,0.21,0.21,0,0,0,.18,0,1,1,0,0,0,.36-0.27s0.12-.09.09-0.15l0,0a0.43,0.43,0,0,1-.44.2,0.61,0.61,0,0,0,.22-0.18,0.25,0.25,0,0,1,.15-0.14s0,0,0,0a0.24,0.24,0,0,1-.22-0.21s0-.09,0-0.14a0.58,0.58,0,0,0-.14-0.26s0,0,0,0a0.41,0.41,0,0,1,0,.06,0.21,0.21,0,0,0,0-.1h0a0.17,0.17,0,0,0,0,.09,0.15,0.15,0,0,1,0-.11h0v0.08a0.13,0.13,0,0,1,0-.06,0.24,0.24,0,0,1,0-.22,0.1,0.1,0,0,1,.12,0s0.08,0,.11,0a0.16,0.16,0,0,1,.09,0,0.25,0.25,0,0,1,.1.14,0.5,0.5,0,0,0,.21.3c0-.09.06-0.11,0.07-0.09a0.27,0.27,0,0,0,.29.16,0.11,0.11,0,0,1,.06-0.1,0.1,0.1,0,0,0,.11.1,0.29,0.29,0,0,1,.2.11,0.15,0.15,0,0,0,.21,0s0-.09,0,0a0.1,0.1,0,0,1-.15,0,0.08,0.08,0,0,1,0-.1s0,0,.06,0v0.06c0.09,0,.09-0.09.09-0.14s0-.07-0.11-0.06a0.35,0.35,0,0,0,0,0,0.13,0.13,0,0,0-.07,0,0.12,0.12,0,0,1-.09-0.1V84.8s0,0,0,0a0.22,0.22,0,0,1,.12,0s0-.09.17,0h0.14a0.14,0.14,0,0,1,.15.06,0.15,0.15,0,0,0,.2,0,0.14,0.14,0,0,1,0,.15s0,0,0,.06a0.08,0.08,0,0,0,.13,0,0.15,0.15,0,0,1-.08.18,0.47,0.47,0,0,1,0,.21c0,0.11,0,.14,0,0.14a0.08,0.08,0,0,1-.15,0,0.24,0.24,0,0,1,0,.12,0.25,0.25,0,0,0-.12.26,0.12,0.12,0,0,1-.12,0,0.79,0.79,0,0,0,.16.83,0.45,0.45,0,0,0,.35-0.5c0-.17,0-0.33,0-0.5a0.52,0.52,0,0,1,.09-0.45,0.36,0.36,0,0,0,.09-0.24,0.37,0.37,0,0,1,.19-0.28,0.65,0.65,0,0,0-.07.32m-4.24-.19a0.12,0.12,0,0,1,0,.22,1.33,1.33,0,0,0-.36,0,0.17,0.17,0,0,1,.21,0s0.26,0.06.2-.16" transform="translate(-303.57 -61.47)"/><path class="cls-2" d="M333.61,71.4h0c0,0.17.21,0.07,0.38,0v1.71h0.21v-2l-0.08,0a4,4,0,0,1,1.12-.12,0.89,0.89,0,0,1,.74.2c0,0.14-.79-0.11-0.74.34s1-.47,2.47-0.56a2.81,2.81,0,0,0,1.71-.47c-1.74.06-1.37-.26-2.58-0.09,0.81-.29,2.08-0.32,2.53-0.89a4,4,0,0,1-1.93.06,4.41,4.41,0,0,0-1.37,0c-0.2-.69-1.19-0.69-1.87-0.55V68.64H334v0.48a0.61,0.61,0,0,0-.46.24,6,6,0,0,1,.07,2M336,69.59L336.11,71l-0.13.12V69.59Zm-1.7,1h-0.11v0.11h-0.09V70.55H334V70.46h0.11V70.35h0.09v0.11h0.11v0.09Zm1,0h-0.11v0.11h-0.09V70.55h-0.11V70.46h0.11V70.35h0.09v0.11h0.11v0.09Zm-0.31-1.08h0.11V69.37h0.09v0.11h0.11v0.1h-0.11v0.11h-0.09V69.57h-0.11v-0.1Zm-0.85-.38h0Zm-0.12.38h0.11V69.37h0.09v0.11h0.11v0.1h-0.11v0.11h-0.09V69.57H334v-0.1Zm0,0.34h0.24v0.1h0.32V69.59h-0.1V69.35h0.4v0.24h-0.1v0.33H335v-0.1h0.24v0.4H335v-0.1h-0.33v0.33h0.1v0.24h-0.4V70.44h0.1V70.11H334.2v0.1H334v-0.4Z" transform="translate(-303.57 -61.47)"/><path class="cls-2" d="M329.52,88.58a1.56,1.56,0,0,1-.66.39,1.46,1.46,0,0,1-1.22.79,1.4,1.4,0,0,1-1.2-.71V88.71a1.61,1.61,0,0,1-1.6-.52v0.52a1.86,1.86,0,0,0,1.47.56,1.2,1.2,0,0,0,1.33,1,1.08,1.08,0,0,0,1.29-.85,0.57,0.57,0,0,0,.58-0.17V89.6h0a5.82,5.82,0,0,0,4.4,2.12,5.92,5.92,0,0,0,4.43-2.12V89.26a0.56,0.56,0,0,0,.57.17,1.08,1.08,0,0,0,1.3.85,1.19,1.19,0,0,0,1.33-1,1.87,1.87,0,0,0,1.46-.56V88.19a1.6,1.6,0,0,1-1.59.52V89a1.4,1.4,0,0,1-1.2.71A1.46,1.46,0,0,1,339,89a1.81,1.81,0,0,1-.7-0.39,5.25,5.25,0,0,1-8.77,0" transform="translate(-303.57 -61.47)"/><path class="cls-2" d="M339.38,70.83a2.9,2.9,0,0,1-1.52.4,5.74,5.74,0,0,0-2.06.56s-0.84.47-.77-0.51a2.51,2.51,0,0,0-.58,0v0.94a3.45,3.45,0,0,1,.58-0.06S335,73,335.55,72.8a8,8,0,0,1,1.86-.59,4.9,4.9,0,0,0,2-.48Z" transform="translate(-303.57 -61.47)"/><path class="cls-2" d="M339.37,69.82a1.73,1.73,0,0,1-1,.49s0.75,0,1,0V69.82Z" transform="translate(-303.57 -61.47)"/><path class="cls-2" d="M342.78,84.34a1.22,1.22,0,0,1-.76,1,1.6,1.6,0,0,1,0,.81s0.81-.32.73-1.84" transform="translate(-303.57 -61.47)"/><path class="cls-2" d="M325.06,84.34a1.23,1.23,0,0,0,.77,1,1.62,1.62,0,0,0,0,.81s-0.81-.32-0.73-1.84" transform="translate(-303.57 -61.47)"/></svg>